<svg xmlns="http://www.w3.org/2000/svg" fill="none" viewBox="0 0 128 128">
    <!-- Shield icon (scaled from Lucide 24x24) -->
    <g transform="translate(24, 8) scale(3.33)">
        <path d="M20 13c0 5-3.5 7.5-7.66 8.95a1 1 0 0 1-.67-.01C7.5 20.5 4 18 4 13V6a1 1 0 0 1 1-1c2 0 4.5-1.2 6.24-2.72a1.17 1.17 0 0 1 1.52 0C14.51 3.81 17 5 19 5a1 1 0 0 1 1 1z" stroke-width="2" stroke-linecap="round" stroke-linejoin="round"/>
    </g>
    <!-- 110 text -->
    <text x="64" y="118" text-anchor="middle" font-family="system-ui, -apple-system, sans-serif" font-size="28" font-weight="700">110</text>
    <style>
        path { fill: none; stroke: #000; }
        text { fill: #000; }
        @media (prefers-color-scheme: dark) {
            path { stroke: #FFF; }
            text { fill: #FFF; }
        }
    </style>
</svg>
