<svg xmlns="http://www.w3.org/2000/svg" width="1200" height="630" viewBox="0 0 1200 630"><clipPath id="e"><path d="M0 0h1200v630H0z"/></clipPath><mask id="f"><path fill="#fff" d="M0 0h1200v630H0z"/></mask><path fill="#0f172a" d="M0 0h1200v630H0z"/><defs><pattern id="c" width=".05" height=".095" x="0" y="0" patternUnits="objectBoundingBox"><linearGradient id="a" x1="0" x2="1" y1="0" y2="0" spreadMethod="pad"><stop offset="0%" stop-color="#1e293b"/><stop offset="1.667%" stop-color="#1e293b"/><stop offset="1.667%" stop-color="transparent"/><stop offset="100%" stop-color="transparent"/></linearGradient><path fill="url(#a)" d="M0 0h60v60H0z"/></pattern><pattern id="g" width=".05" height=".095" x="0" y="0" patternUnits="objectBoundingBox"><linearGradient id="b" x1="0" x2="0" y1="0" y2="1" spreadMethod="pad"><stop offset="0%" stop-color="#1e293b"/><stop offset="1.667%" stop-color="#1e293b"/><stop offset="1.667%" stop-color="transparent"/><stop offset="100%" stop-color="transparent"/></linearGradient><path fill="url(#b)" d="M0 0h60v60H0z"/></pattern></defs><g opacity=".5"><path fill="url(#c)" d="M0 0h1200v630H0z" clip-path="url(#e)" mask="url(#f)"/><path fill="url(#g)" d="M0 0h1200v630H0z" clip-path="url(#e)" mask="url(#f)"/></g><path fill="#f97316" d="M580 171h40a20 20 0 0 1 20 20v40a20 20 0 0 1-20 20h-40a20 20 0 0 1-20-20v-40a20 20 0 0 1 20-20" clip-path="url(#e)" mask="url(#f)"/><path fill="#fff" d="M601.9 228.5h-14.7v-35H601q3.9 0 6.4 1.2 2.6 1.2 3.9 3.2 1.2 2 1.2 4.6 0 2.1-.8 3.6t-2.2 2.5-3.2 1.4v.4q1.9 0 3.7 1.1 1.7 1 2.8 2.9t1.1 4.4q0 2.8-1.4 5-1.3 2.2-4 3.4-2.6 1.3-6.6 1.3m-7.6-15.4v9.5h6.2q3.1 0 4.6-1.2 1.4-1.3 1.4-3.3 0-1.4-.7-2.6-.7-1.1-2-1.7-1.3-.7-3.1-.7zm0-13.7v8.8h5.7q1.5 0 2.7-.5 1.2-.6 1.9-1.6t.7-2.4q0-1.9-1.3-3.1-1.4-1.2-3.9-1.2z" clip-path="url(#e)" mask="url(#f)"/><path fill="#f1f5f9" d="M515.9 337h-19.7v-46.6h18.5q5.1 0 8.5 1.6 3.5 1.5 5.2 4.2t1.7 6.2q0 2.8-1.1 4.8-1.1 2.1-3 3.3-1.9 1.3-4.3 1.9v.5q2.6.1 4.9 1.5 2.4 1.4 3.8 3.8 1.5 2.5 1.5 6 0 3.6-1.8 6.6-1.8 2.9-5.4 4.5-3.5 1.7-8.8 1.7m-10.1-20.5v12.7h8.2q4.2 0 6.1-1.7 2-1.6 2-4.2 0-2-1-3.5-.9-1.5-2.7-2.4-1.7-.9-4.1-.9zm0-18.3V310h7.5q2 0 3.6-.7 1.7-.8 2.6-2.1.9-1.4.9-3.3 0-2.5-1.8-4.1t-5.1-1.6zm30.8-7.8h9.6V337h-9.6zm25.6 46.6h-9.5v-46.6h18.1q5.4 0 9.1 2.1 3.7 2 5.7 5.5 1.9 3.6 1.9 8.2t-2 8.1-5.7 5.5q-3.8 2-9.2 2h-8.4zm0-38.7v15.8h6.9q2.9 0 4.8-1t2.8-2.8q1-1.8 1-4.1 0-2.4-1-4.2-.9-1.7-2.8-2.7t-4.8-1zm30.2 15.8h21.2v7.5h-21.2zm36.8-23.7h10.2V337h-9.5v-38.2h-.3l-10.7 7.6v-8.7zm25.7 0h10.2V337h-9.5v-38.2h-.3l-10.7 7.6v-8.7zm34 47.2q-5.8 0-10-2.8-4.1-2.8-6.4-8.2-2.2-5.3-2.2-12.8 0-7.6 2.2-12.9 2.3-5.4 6.4-8.2 4.2-2.9 10-2.9 5.9 0 10.1 2.9 4.2 2.8 6.4 8.2 2.2 5.3 2.2 12.9 0 7.5-2.2 12.8-2.2 5.4-6.4 8.2-4.1 2.8-10.1 2.8m0-7.9q2.9 0 4.9-1.9 2-1.8 3-5.4 1.1-3.6 1.1-8.6 0-5.2-1.1-8.8-1-3.6-3-5.4-2-1.9-4.9-1.9-2.8 0-4.8 1.9t-3 5.4q-1.1 3.6-1.1 8.8 0 5 1.1 8.6 1 3.6 3 5.4 2 1.9 4.8 1.9" clip-path="url(#e)" mask="url(#f)"/><path fill="#64748b" d="M409.3 383.3h-2.2v-17.5h6q2 0 3.3.7 1.4.7 2 1.9t.6 2.8q0 1.5-.6 2.7t-2 1.9q-.3.2-.6.3l3.9 7.2h-2.6l-3.6-6.8h-4.2zm0-15.6v6.8h3.7q1.4 0 2.2-.4.9-.4 1.2-1.2.4-.7.4-1.7 0-1.1-.4-1.8-.3-.8-1.2-1.2-.8-.5-2.2-.5zm18.5 15.8q-1.9 0-3.3-.8-1.3-.9-2.1-2.4-.7-1.5-.7-3.5t.7-3.5q.7-1.6 2-2.4 1.4-.9 3.2-.9 1 0 2 .3 1 .4 1.9 1.1.8.8 1.3 2.1.5 1.2.5 3v.9h-9.5q0 1.3.5 2.2.5 1 1.4 1.5.9.6 2.1.6.8 0 1.4-.3.7-.2 1.1-.6.5-.5.7-1.2l2.1.6q-.3 1-1.1 1.7-.7.8-1.8 1.2-1 .4-2.4.4m-4-7.9h7.3q-.1-.9-.4-1.6-.4-1-1.2-1.6-.8-.5-1.9-.5-1.2 0-2.1.5-.8.6-1.3 1.5-.3.8-.4 1.7m17.4 7.9q-1.6 0-2.9-.8-1.2-.8-1.9-2.4-.7-1.5-.7-3.6 0-2 .7-3.6.7-1.5 1.9-2.3 1.3-.8 2.9-.8 1.3 0 2 .4.8.4 1.2 1 .4.5.6.8h.2v-6.4h2.1v17.5h-2.1v-2.1h-.2q-.2.4-.6.9-.4.6-1.2 1-.7.4-2 .4m.3-1.9q1.2 0 2-.6.9-.6 1.3-1.7t.4-2.6q0-1.4-.4-2.5t-1.3-1.7q-.8-.6-2-.6t-2.1.6q-.8.7-1.2 1.8t-.4 2.4q0 1.4.4 2.5t1.3 1.8q.8.6 2 .6m13.9 1.8q-1.3 0-2.3-.5-1-.6-1.6-1.7-.5-1.1-.5-2.7v-8.4h2.1v8.2q0 1.5.8 2.4.8.8 2.2.8.9 0 1.6-.4.8-.4 1.2-1.2.5-.8.5-1.9v-7.9h2.1v13.2h-2.1v-2.5q-.5 1.3-1.4 1.9-1.1.7-2.6.7m15.1.1q-1.8 0-3.1-.8-1.4-.9-2.1-2.4-.8-1.5-.8-3.5 0-2.1.8-3.6.7-1.5 2.1-2.4 1.3-.8 3.1-.8 1 0 1.8.2.8.3 1.5.7.7.5 1.2 1.2t.8 1.5l-2 .6q-.2-.5-.4-.9-.3-.5-.8-.8-.4-.3-.9-.5-.5-.1-1.2-.1-1.3 0-2.1.7-.9.6-1.3 1.8-.4 1.1-.4 2.4t.4 2.4 1.3 1.8q.8.6 2.1.6.7 0 1.2-.1.6-.2 1-.5.4-.4.7-.8t.4-1l2.1.6q-.3.9-.8 1.6t-1.2 1.1q-.7.5-1.6.8-.8.2-1.8.2m13.9 0q-1.9 0-3.3-.8-1.4-.9-2.1-2.4t-.7-3.5.7-3.5q.7-1.6 2-2.4 1.4-.9 3.1-.9 1.1 0 2.1.3 1 .4 1.8 1.1.9.8 1.4 2.1.5 1.2.5 3v.9h-9.5q0 1.3.5 2.2.5 1 1.4 1.5.9.6 2.1.6.8 0 1.4-.3.6-.2 1.1-.6.5-.5.7-1.2l2 .6q-.3 1-1 1.7-.7.8-1.8 1.2t-2.4.4m-4-7.9h7.3q-.1-.9-.4-1.6-.4-1-1.2-1.6-.8-.5-2-.5-1.1 0-2 .5-.8.6-1.3 1.5-.3.8-.4 1.7m17.4 7.9q-1.6 0-2.9-.8-1.2-.8-2-2.4-.7-1.5-.7-3.6 0-2 .8-3.6.7-1.5 1.9-2.3 1.3-.8 2.9-.8 1.3 0 2 .4.8.4 1.2 1 .4.5.6.8h.2v-6.4h2.1v17.5h-2.1v-2.1h-.2q-.2.4-.6.9-.4.6-1.2 1t-2 .4m.3-1.9q1.2 0 2-.6t1.3-1.7q.4-1.1.4-2.6 0-1.4-.4-2.5t-1.3-1.7q-.8-.6-2-.6t-2.1.6q-.8.7-1.2 1.8t-.4 2.4q0 1.4.4 2.5t1.3 1.8q.8.6 2 .6m21.9 1.7h-5.4v-17.5h5.7q2.5 0 4.3 1 1.8 1.1 2.8 3 1 2 1 4.7t-1 4.7q-1 1.9-2.8 3-1.9 1.1-4.6 1.1m-3.2-15.5v13.5h3.1q2.1 0 3.5-.8t2.1-2.4q.7-1.5.7-3.6t-.7-3.6-2-2.3q-1.4-.8-3.4-.8zm18.5 15.8q-1.2 0-2.2-.5-1.1-.5-1.7-1.4t-.6-2.2q0-1.1.5-1.8.4-.7 1.2-1.1.7-.4 1.6-.6t1.8-.3q1.2-.2 2-.3.7 0 1.1-.2.3-.2.3-.7v-.1q0-.8-.3-1.4t-.9-.9-1.5-.3q-1 0-1.6.3-.7.3-1.1.8-.4.4-.6.9l-2.1-.7q.5-1.2 1.4-1.9.8-.7 1.9-.9 1-.3 2-.3.7 0 1.5.1.8.2 1.6.7.8.4 1.3 1.4.5.9.5 2.4v8.7h-2.1v-1.8h-.1q-.2.4-.7.9t-1.3.8q-.8.4-1.9.4m.4-1.9q1.1 0 2-.5.8-.4 1.2-1.2.4-.7.4-1.5v-1.8q-.1.2-.6.3-.4.1-.9.2-.6.1-1.1.1-.5.1-.8.1-.8.1-1.5.4-.6.2-1 .6-.4.5-.4 1.2t.3 1.2q.4.4 1 .7.6.2 1.4.2m11.9-11.6h2.7v1.9h-2.7v7.9q0 .8.3 1.2.4.4 1.2.4h.5q.3-.1.6-.1l.4 1.8q-.3.1-.7.2h-.8q-1.7 0-2.7-.9-.9-.9-.9-2.5v-8h-2v-1.9h2V367h2.1zm9 13.5q-1.2 0-2.2-.5t-1.6-1.4-.6-2.2q0-1.1.4-1.8.5-.7 1.2-1.1.8-.4 1.7-.6t1.8-.3q1.1-.2 1.9-.3.7 0 1.1-.2.3-.2.3-.7v-.1q0-.8-.3-1.4t-.9-.9-1.5-.3-1.6.3-1.1.8q-.4.4-.6.9l-2-.7q.5-1.2 1.3-1.9.9-.7 1.9-.9 1-.3 2-.3.7 0 1.5.1.9.2 1.6.7.8.4 1.3 1.4.5.9.5 2.4v8.7h-2v-1.8h-.2q-.2.4-.7.9t-1.3.8q-.7.4-1.9.4m.4-1.9q1.2 0 2-.5.8-.4 1.2-1.2.4-.7.4-1.5v-1.8q-.1.2-.5.3l-1 .2q-.6.1-1.1.1-.5.1-.8.1-.8.1-1.4.4-.7.2-1.1.6-.4.5-.4 1.2t.3 1.2q.4.4 1 .7.6.2 1.4.2m21-13.9h-5.5v-2h13.2v2h-5.5v15.5H578zm16.2 15.7q-1.9 0-3.3-.8-1.4-.9-2.1-2.4t-.7-3.5.7-3.5q.7-1.6 2-2.4 1.4-.9 3.2-.9 1 0 2 .3 1 .4 1.8 1.1.9.8 1.4 2.1.5 1.2.5 3v.9h-9.5q0 1.3.5 2.2.5 1 1.4 1.5.9.6 2.1.6.8 0 1.4-.3.7-.2 1.1-.6.5-.5.7-1.2l2 .6q-.3 1-1 1.7-.7.8-1.8 1.2t-2.4.4m-4-7.9h7.3q-.1-.9-.4-1.6-.4-1-1.2-1.6-.8-.5-1.9-.5-1.2 0-2.1.5-.8.6-1.3 1.5-.3.8-.4 1.7m14.6 7.7h-2.1v-13.2h2v2.5q.3-.8.7-1.3.6-.7 1.4-1 .8-.4 1.6-.4 1.4 0 2.3.9.7.7 1.1 1.8.2-.7.6-1.2.7-.7 1.6-1.1.8-.4 1.9-.4t2.1.5q.9.5 1.4 1.5.6 1 .6 2.5v8.9h-2.1v-8.8q0-1.4-.8-2.1-.8-.6-1.9-.6-.8 0-1.5.4-.6.4-1 1-.3.7-.3 1.5v8.6h-2.1v-9q0-1.1-.7-1.8-.8-.7-1.9-.7-.7 0-1.4.4t-1.1 1.1-.4 1.7zm21 4.8h-2.1v-18h2v2.1h.3q.2-.3.6-.8.4-.6 1.2-1 .7-.4 2-.4 1.6 0 2.9.8 1.2.8 1.9 2.3.7 1.6.7 3.6 0 2.1-.7 3.6-.7 1.6-1.9 2.4-1.3.8-2.9.8-1.3 0-2-.4-.8-.4-1.2-1-.4-.5-.6-.9h-.2zm3.7-6.5q1.2 0 2-.6.9-.7 1.3-1.8t.4-2.5q0-1.3-.4-2.4t-1.3-1.8q-.8-.6-2-.6t-2.1.6q-.8.6-1.2 1.7t-.4 2.5q0 1.5.4 2.6t1.3 1.7q.8.6 2 .6m14.2 1.9q-1.7 0-3.1-.8-1.3-.9-2.1-2.4-.7-1.5-.7-3.5 0-2.1.7-3.6.8-1.5 2.1-2.4 1.4-.8 3.1-.8 1.8 0 3.2.8 1.3.9 2.1 2.4.7 1.5.7 3.6 0 2-.7 3.5-.8 1.5-2.1 2.4-1.4.8-3.2.8m0-1.9q1.4 0 2.2-.6.9-.7 1.3-1.8t.4-2.4-.4-2.4q-.4-1.2-1.3-1.8-.8-.7-2.2-.7-1.3 0-2.1.7-.9.6-1.3 1.8-.4 1.1-.4 2.4t.4 2.4 1.3 1.8q.8.6 2.1.6m11.2 1.7h-2.1v-13.2h2v2.1h.2q.3-1 1.3-1.6.9-.6 2.1-.6h1v2.1q-.1 0-.4-.1h-.8q-1 0-1.7.4-.8.4-1.2 1.1t-.4 1.5zm10.6.3q-1.2 0-2.3-.5-1-.5-1.6-1.4t-.6-2.2q0-1.1.5-1.8.4-.7 1.2-1.1.7-.4 1.6-.6t1.8-.3q1.2-.2 1.9-.3.8 0 1.1-.2.4-.2.4-.7v-.1q0-.8-.3-1.4t-.9-.9-1.5-.3q-1 0-1.7.3-.6.3-1 .8-.5.4-.7.9l-2-.7q.5-1.2 1.4-1.9.8-.7 1.9-.9 1-.3 2-.3.6 0 1.5.1.8.2 1.6.7.8.4 1.3 1.4.5.9.5 2.4v8.7h-2.1v-1.8h-.1q-.2.4-.7.9t-1.3.8q-.8.4-1.9.4m.4-1.9q1.1 0 1.9-.5.8-.4 1.3-1.2.4-.7.4-1.5v-1.8q-.1.2-.6.3-.4.1-1 .2-.5.1-1 .1-.6.1-.9.1-.7.1-1.4.4-.7.2-1 .6-.4.5-.4 1.2t.3 1.2q.4.4 1 .7.6.2 1.4.2m11.5 1.6h-2.1v-13.2h2v2.1h.2q.3-1 1.3-1.6.9-.6 2.1-.6h1v2.1l-.4-.1h-.8q-1 0-1.7.4t-1.2 1.1q-.4.7-.4 1.5zm6.7 4.7.6-1.8h.2q.6.2 1.2.1.5-.1.9-.5.4-.5.8-1.4l.3-1.1-5-13.2h2.3l2.8 7.8q.5 1.2.8 2.4l.2 1q.2-.5.3-1 .3-1.2.7-2.4l2.8-7.8h2.3l-5.7 15.1q-.4 1.1-1 1.7-.5.7-1.3 1-.7.3-1.6.3h-1q-.4-.1-.6-.2m26.3-4.4q-1.9 0-3.2-.7-1.4-.6-2.2-1.7t-.9-2.5h2.3q.1 1 .6 1.6.6.6 1.5 1 .9.3 1.9.3 1.2 0 2.2-.4.9-.4 1.4-1.1.6-.7.6-1.6t-.5-1.4-1.2-.9q-.8-.3-1.8-.6l-2.1-.6q-2.1-.6-3.2-1.7-1.2-1.1-1.2-2.8 0-1.5.8-2.6t2.1-1.7q1.4-.6 3.1-.6t3 .6 2.1 1.6q.8 1.1.8 2.4h-2.1q-.2-1.3-1.3-2-1-.7-2.6-.7-1.1 0-2 .4-.8.4-1.3 1t-.5 1.5.6 1.4q.6.6 1.4.9.7.3 1.4.5l1.7.5q.7.2 1.6.5.8.3 1.6.9.8.5 1.3 1.3.5.9.5 2.1 0 1.4-.8 2.6-.7 1.1-2.1 1.8-1.5.7-3.5.7m14.9-.1q-1.8 0-3.1-.8-1.4-.9-2.1-2.4-.8-1.5-.8-3.5 0-2.1.8-3.6.7-1.5 2.1-2.4 1.3-.8 3.1-.8t3.1.8q1.4.9 2.1 2.4.8 1.5.8 3.6 0 2-.8 3.5-.7 1.5-2.1 2.4-1.3.8-3.1.8m0-1.9q1.3 0 2.2-.6.8-.7 1.3-1.8.4-1.1.4-2.4t-.4-2.4q-.5-1.2-1.3-1.8-.9-.7-2.2-.7t-2.1.7q-.9.6-1.3 1.8-.4 1.1-.4 2.4t.4 2.4 1.3 1.8q.8.6 2.1.6m12.1-11.5h3.1v1.9h-3.1v11.3h-2.1V372h-2.5v-1.9h2.5v-1.7q0-1.1.6-1.9.5-.8 1.4-1.1.8-.4 1.8-.4.7 0 1.2.1t.7.2l-.6 1.8q-.1 0-.4-.1t-.7-.1q-1 0-1.4.5-.5.5-.5 1.5zm8.3 0h2.7v1.9h-2.7v7.9q0 .8.4 1.2.3.4 1.2.4h.5q.3-.1.5-.1l.5 1.8-.8.2h-.8q-1.7 0-2.6-.9-1-.9-1-2.5v-8h-2v-1.9h2V367h2.1zm8.5 0h3v1.9h-3v11.3h-2.1V372h-2.6v-1.9h2.6v-1.7q0-1.1.5-1.9t1.4-1.1q.8-.4 1.8-.4.7 0 1.2.1t.8.2l-.6 1.8q-.2 0-.5-.1-.2-.1-.7-.1-.9 0-1.4.5-.4.5-.4 1.5zm11.1 13.4q-1.8 0-3.1-.8-1.3-.9-2.1-2.4-.7-1.5-.7-3.5 0-2.1.7-3.6.8-1.5 2.1-2.4 1.3-.8 3.1-.8t3.2.8q1.3.9 2.1 2.4.7 1.5.7 3.6 0 2-.7 3.5-.8 1.5-2.1 2.4-1.4.8-3.2.8m0-1.9q1.3 0 2.2-.6.9-.7 1.3-1.8t.4-2.4-.4-2.4q-.4-1.2-1.3-1.8-.9-.7-2.2-.7t-2.1.7q-.9.6-1.3 1.8-.4 1.1-.4 2.4t.4 2.4 1.3 1.8q.8.6 2.1.6m11.2 1.7h-2.1v-13.2h2v2.1h.2q.3-1 1.2-1.6 1-.6 2.2-.6h1v2.1q-.1 0-.4-.1h-.8q-1 0-1.7.4-.8.4-1.2 1.1t-.4 1.5zm9 0h-2.1v-17.5h2.1v10.1h.3l5.6-5.8h2.6l-5.5 5.7 5.9 7.5h-2.7l-4.8-6.2-1.4 1.3z" clip-path="url(#e)" mask="url(#f)"/><defs><clipPath id="h" clip-path="url(#e)"><path d="M506 421h70a19 19 0 0 1 19 19 19 19 0 0 1-19 19h-70a19 19 0 0 1-19-19 19 19 0 0 1 19-19"/></clipPath></defs><path fill="#1e293b" d="M506 421h70a19 19 0 0 1 19 19 19 19 0 0 1-19 19h-70a19 19 0 0 1-19-19 19 19 0 0 1 19-19" clip-path="url(#e)" mask="url(#f)"/><path fill="none" stroke="#334155" stroke-width="2" d="M492.565 426.565A19 19 0 0 1 506 421h70a19 19 0 0 1 19 19 19 19 0 0 1-19 19h-70a19 19 0 0 1-19-19 19 19 0 0 1 5.565-13.435" clip-path="url(#h)"/><path fill="#94a3b8" d="M509.4 445.2q-1.4 0-2.4-.6t-1.6-1.8-.6-2.8.6-2.8 1.6-1.8 2.4-.6q.7 0 1.4.2t1.2.7q.6.4 1 1 .3.6.5 1.4h-1.3q-.1-.5-.4-.9t-.7-.7q-.3-.3-.8-.4-.4-.1-.9-.1-1 0-1.7.4-.7.5-1.2 1.4-.4.9-.4 2.2t.4 2.2q.5.9 1.2 1.4.7.4 1.7.4.5 0 .9-.1.5-.2.8-.4.4-.3.7-.7t.4-.9h1.3q-.2.8-.5 1.4-.4.6-.9 1-.6.5-1.3.7t-1.4.2m9 .1q-1 0-1.8-.5t-1.2-1.4q-.5-.9-.5-2.1t.5-2.1q.4-.9 1.2-1.4.8-.4 1.8-.4 1.1 0 1.8.4.8.5 1.3 1.4.4.9.4 2.1t-.4 2.1q-.5.9-1.3 1.4-.7.5-1.8.5m0-1.1q.8 0 1.3-.4t.7-1.1q.3-.6.3-1.4 0-.7-.3-1.4-.2-.6-.7-1t-1.3-.4q-.7 0-1.2.4t-.8 1q-.2.7-.2 1.4 0 .8.2 1.4.3.7.8 1.1t1.2.4m6.5-3.7v4.6h-1.2v-7.6h1.2v1.4q.3-.8.8-1.1.7-.4 1.5-.4t1.4.3.9.9q.3.7.3 1.6v4.9h-1.2v-4.8q0-.8-.5-1.3-.4-.5-1.2-.5-.6 0-1 .2-.5.2-.7.7-.3.5-.3 1.1m9.7 4.8q-.8 0-1.4-.3-.6-.2-1-.7-.4-.4-.6-1.1l1.2-.2q.2.6.6.9.5.3 1.2.3.8 0 1.2-.4.5-.3.5-.8 0-.4-.3-.6-.2-.3-.8-.4l-1.3-.3q-1-.3-1.5-.8t-.5-1.3q0-.7.3-1.2.4-.5 1-.8.7-.2 1.5-.2t1.3.2q.6.2.9.6.4.5.5 1l-1.1.3q-.1-.4-.5-.8-.4-.3-1.1-.3t-1.1.3q-.5.3-.5.8 0 .4.3.7.3.2 1 .4l1.1.3q1.1.2 1.6.7.5.6.5 1.3t-.4 1.2q-.4.6-1.1.9-.6.3-1.5.3m8 0q-1.1 0-1.9-.5t-1.3-1.4q-.4-.9-.4-2.1 0-1.1.4-2t1.2-1.4 1.8-.5q.6 0 1.2.2t1.1.6q.5.5.8 1.2t.3 1.8v.5h-5.6q.1.7.3 1.3.3.6.9.9.5.3 1.2.3.4 0 .8-.2.4-.1.6-.4.3-.2.4-.6l1.2.3q-.1.6-.6 1-.4.5-1 .7-.6.3-1.4.3m-2.4-4.7h4.3q0-.5-.2-.9-.2-.6-.7-.9-.5-.4-1.2-.4t-1.2.4q-.4.3-.7.9-.2.4-.3.9m8.6-.1v4.6h-1.3v-7.6h1.2v1.4q.3-.8.8-1.1.7-.4 1.6-.4.7 0 1.3.3t.9.9q.3.7.3 1.6v4.9h-1.2v-4.8q0-.8-.5-1.3-.4-.5-1.2-.5-.6 0-1 .2t-.7.7q-.2.5-.2 1.1m9.6 4.8q-.8 0-1.4-.3-.6-.2-1-.7-.4-.4-.5-1.1l1.1-.2q.2.6.6.9.5.3 1.2.3.8 0 1.3-.4.4-.3.4-.8 0-.4-.2-.6-.3-.3-.9-.4l-1.3-.3q-1-.3-1.5-.8t-.5-1.3q0-.7.4-1.2.3-.5 1-.8.6-.2 1.4-.2t1.4.2q.5.2.8.6.4.5.6 1l-1.1.3q-.2-.4-.6-.8-.3-.3-1.1-.3-.7 0-1.1.3-.5.3-.5.8 0 .4.3.7.3.2 1 .4l1.2.3q1 .2 1.5.7.5.6.5 1.3t-.4 1.2q-.4.6-1 .9-.7.3-1.6.3m7.4-.1q-.8 0-1.4-.3t-.9-1q-.3-.6-.3-1.6v-4.8h1.2v4.7q0 .9.5 1.4.4.5 1.2.5.6 0 1-.3.5-.2.7-.7.3-.4.3-1.1v-4.5h1.2v7.6h-1.2v-1.4q-.3.7-.8 1.1-.7.4-1.5.4m8.3.1q-.8 0-1.4-.3-.6-.2-1-.7-.4-.4-.6-1.1l1.2-.2q.2.6.6.9.5.3 1.1.3.8 0 1.3-.4.5-.3.5-.8 0-.4-.3-.6-.3-.3-.8-.4l-1.3-.3q-1-.3-1.5-.8t-.5-1.3q0-.7.3-1.2.4-.5 1-.8.7-.2 1.5-.2t1.3.2q.6.2.9.6.4.5.5 1l-1.1.3q-.1-.4-.5-.8-.4-.3-1.1-.3t-1.1.3q-.5.3-.5.8 0 .4.3.7.3.2 1 .4l1.1.3q1.1.2 1.6.7.5.6.5 1.3t-.4 1.2q-.4.6-1.1.9-.6.3-1.5.3" clip-path="url(#e)" mask="url(#f)"/><defs><clipPath id="i" clip-path="url(#e)"><path d="M626 421h69a19 19 0 0 1 19 19 19 19 0 0 1-19 19h-69a19 19 0 0 1-19-19 19 19 0 0 1 19-19"/></clipPath></defs><path fill="#1e293b" d="M626 421h69a19 19 0 0 1 19 19 19 19 0 0 1-19 19h-69a19 19 0 0 1-19-19 19 19 0 0 1 19-19" clip-path="url(#e)" mask="url(#f)"/><path fill="none" stroke="#334155" stroke-width="2" d="M612.565 426.565A19 19 0 0 1 626 421h69a19 19 0 0 1 19 19 19 19 0 0 1-19 19h-69a19 19 0 0 1-19-19 19 19 0 0 1 5.565-13.435" clip-path="url(#i)"/><path fill="#94a3b8" d="M627.9 436.1h-3.2v-1.2h7.7v1.2h-3.2v9h-1.3zm9.4 9.2q-1.1 0-1.9-.5t-1.2-1.4q-.5-.9-.5-2.1 0-1.1.5-2 .4-.9 1.2-1.4.7-.5 1.8-.5.6 0 1.2.2t1.1.6q.4.5.7 1.2t.3 1.8v.5H635q0 .7.3 1.3t.8.9 1.2.3q.5 0 .9-.2.3-.1.6-.4.3-.2.4-.6l1.2.3q-.2.6-.6 1-.4.5-1.1.7-.6.3-1.4.3m-2.3-4.7h4.3q-.1-.5-.3-.9-.2-.6-.7-.9-.4-.4-1.1-.4t-1.2.4q-.5.3-.7.9-.3.4-.3.9m8.5 4.5h-1.2v-7.6h1.2v1.4q.1-.5.4-.8.3-.4.8-.6.4-.2.9-.2.9 0 1.4.5.4.4.6 1.1.1-.4.4-.7.3-.4.9-.7.5-.2 1.1-.2t1.2.3q.5.3.9.9.3.5.3 1.4v5.2h-1.2V440q0-.9-.5-1.2-.5-.4-1.1-.4-.5 0-.9.2-.4.3-.6.6-.2.4-.2.9v5h-1.2v-5.3q0-.6-.4-1t-1.1-.4q-.4 0-.8.2-.4.3-.7.7-.2.4-.2 1zm12.3 2.9h-1.3v-10.5h1.2v1.2h.2q.1-.2.3-.5.3-.4.7-.6t1.2-.2q.9 0 1.7.4.7.5 1.1 1.4t.4 2.1-.4 2.1-1.1 1.4q-.8.5-1.7.5-.7 0-1.2-.3-.4-.2-.7-.6-.2-.3-.3-.5h-.1zm2.1-3.8q.7 0 1.2-.4t.7-1.1q.3-.6.3-1.4t-.3-1.5q-.2-.6-.7-1-.5-.3-1.2-.3t-1.2.3q-.5.4-.7 1t-.2 1.5q0 .8.2 1.5.3.6.7 1 .5.4 1.2.4m8.3 1.1q-1 0-1.8-.5t-1.2-1.4q-.5-.9-.5-2.1t.5-2.1q.4-.9 1.2-1.4.8-.4 1.8-.4 1.1 0 1.9.4.7.5 1.2 1.4.4.9.4 2.1t-.4 2.1q-.5.9-1.2 1.4-.8.5-1.9.5m0-1.1q.8 0 1.3-.4t.7-1.1q.3-.6.3-1.4 0-.7-.3-1.4-.2-.6-.7-1t-1.3-.4q-.7 0-1.2.4t-.8 1q-.2.7-.2 1.4 0 .8.2 1.4.3.7.8 1.1t1.2.4m6.5.9h-1.2v-7.6h1.2v1.1h.1q.2-.6.7-.9.6-.4 1.3-.4h.3q.2.1.3.1v1.2h-.3q-.2-.1-.5-.1-.5 0-.9.3-.5.2-.7.6-.3.4-.3.9zm6.2.2q-.7 0-1.3-.3t-.9-.8q-.4-.5-.4-1.3 0-.6.3-1 .2-.5.7-.7.4-.2.9-.3.6-.2 1.1-.2.7-.1 1.1-.2.4 0 .6-.1.3-.1.3-.4v-.1q0-.4-.2-.8-.2-.3-.6-.5-.3-.2-.8-.2-.6 0-1 .2t-.6.4q-.3.3-.4.6l-1.2-.4q.3-.7.8-1.1t1.1-.6q.6-.1 1.2-.1h.9q.5.1.9.4.5.3.8.8.3.6.3 1.5v5h-1.2v-1h-.1q-.1.2-.4.5t-.8.5q-.4.2-1.1.2m.2-1.1q.7 0 1.2-.3.5-.2.7-.7.3-.4.3-.9v-1q-.1.1-.4.1-.2.1-.6.2-.3 0-.6.1h-.5l-.8.2q-.4.1-.6.4-.2.2-.2.7 0 .4.2.6.2.3.5.4.4.2.8.2m6.8.9h-1.3v-7.6h1.2v1.1h.1q.2-.6.8-.9.5-.4 1.2-.4h.3q.2.1.3.1v1.2h-.3q-.2-.1-.4-.1-.6 0-1 .3-.4.2-.7.6-.2.4-.2.9zm3.9 2.8.3-1.1h.1q.4.1.7.1.3-.1.6-.3.2-.3.4-.8l.2-.7-2.9-7.6h1.3l1.7 4.5.4 1.4.2.6q0-.3.1-.6.2-.7.5-1.4l1.6-4.5h1.3l-3.3 8.7q-.3.6-.6 1t-.7.6q-.5.2-1 .2h-.6q-.2-.1-.3-.1" clip-path="url(#e)" mask="url(#f)"/></svg>